<?xml version="1.0" encoding="UTF-8" standalone="no"?>
<!-- Created with Inkscape (http://www.inkscape.org/) -->

<svg
   width="74mm"
   height="5.8000002mm"
   viewBox="0 0 74 5.8000002"
   version="1.1"
   id="svg1"
   inkscape:version="1.3.2 (091e20e, 2023-11-25, custom)"
   sodipodi:docname="Timex2068_case_sticker.svg"
   inkscape:export-filename="Timex2068_case_sticker.png"
   inkscape:export-xdpi="300"
   inkscape:export-ydpi="300"
   xmlns:inkscape="http://www.inkscape.org/namespaces/inkscape"
   xmlns:sodipodi="http://sodipodi.sourceforge.net/DTD/sodipodi-0.dtd"
   xmlns="http://www.w3.org/2000/svg"
   xmlns:svg="http://www.w3.org/2000/svg">
  <sodipodi:namedview
     id="namedview1"
     pagecolor="#ffffff"
     bordercolor="#000000"
     borderopacity="0.25"
     inkscape:showpageshadow="2"
     inkscape:pageopacity="0.0"
     inkscape:pagecheckerboard="0"
     inkscape:deskcolor="#d1d1d1"
     inkscape:document-units="mm"
     inkscape:zoom="4.228078"
     inkscape:cx="120.62218"
     inkscape:cy="-1.0643134"
     inkscape:window-width="1920"
     inkscape:window-height="1017"
     inkscape:window-x="793"
     inkscape:window-y="2152"
     inkscape:window-maximized="1"
     inkscape:current-layer="layer1" />
  <defs
     id="defs1" />
  <g
     inkscape:label="Layer 1"
     inkscape:groupmode="layer"
     id="layer1"
     transform="translate(-9.5096455,-9.844512)">
    <rect
       style="fill:#c2c2c2;fill-opacity:1;stroke:#4786ab;stroke-width:0;stroke-linecap:round;stroke-dasharray:none;stroke-opacity:1"
       id="rect13-2-1"
       width="51.727722"
       height="5.8000002"
       x="31.781923"
       y="9.844512"
       inkscape:label="bg_grey" />
    <rect
       style="fill:#000000;fill-opacity:1;stroke:#4786ab;stroke-width:0;stroke-linecap:round;stroke-dasharray:none;stroke-opacity:1"
       id="rect12-3-3"
       width="22.272278"
       height="5.8000002"
       x="9.5096455"
       y="9.844512"
       inkscape:label="bg_black" />
    <path
       id="path10-7-3"
       style="fill:#000000;fill-opacity:1;stroke:#4786ab;stroke-width:0;stroke-linecap:round;stroke-dasharray:none;stroke-opacity:1"
       d="m 73.191719,11.315322 v 2.85248 h 3.34276 v -1.76052 h -2.67421 v -0.42341 h 2.67421 v -0.66855 z m 0.66855,1.76051 h 2.00566 v 0.42342 h -2.00566 z"
       sodipodi:nodetypes="cccccccccccccc"
       inkscape:label="6" />
    <path
       id="rect10-8-4"
       style="fill:#000000;fill-opacity:1;stroke:#4786ab;stroke-width:0;stroke-linecap:round;stroke-dasharray:none;stroke-opacity:1"
       d="m 77.113889,11.315322 v 2.85248 h 3.29818 v -2.85248 z m 0.66855,0.66855 h 1.96108 v 0.42341 h -1.96108 z m 0,1.09196 h 1.96108 v 0.42342 h -1.96108 z"
       sodipodi:nodetypes="ccccccccccccccc"
       inkscape:label="8" />
    <path
       id="rect9-3-1"
       style="fill:#000000;fill-opacity:1;stroke:#4786ab;stroke-width:0;stroke-linecap:round;stroke-dasharray:none;stroke-opacity:1"
       d="m 69.224988,11.315322 -0.002,2.85248 h 3.389111 v -2.85248 z m 0.668551,0.66855 h 2.05022 v 1.51538 h -2.05022 z"
       sodipodi:nodetypes="cccccccccc"
       inkscape:label="0" />
    <path
       style="fill:#000000;fill-opacity:1;stroke:#4786ab;stroke-width:0;stroke-linecap:round;stroke-dasharray:none;stroke-opacity:1"
       d="m 65.347388,11.315322 h 3.29819 v 1.76051 h -2.62963 v 0.42342 h 2.62963 v 0.66855 h -3.29819 v -1.76052 h 2.62964 v -0.42341 h -2.62964 z"
       id="path8-5-02"
       sodipodi:nodetypes="ccccccccccccc"
       inkscape:label="2" />
    <path
       d="m 58.176818,11.850162 v 2.6742 h 0.97244 v -1.94487 h 3.88975 v -0.72933 h -4.86219"
       style="fill:#231f20;fill-opacity:1;fill-rule:nonzero;stroke:none;stroke-width:0.00607775"
       id="path24-4-3"
       inkscape:label="R" />
    <path
       d="m 57.051598,11.393322 h 0.93591 v -0.70198 h -0.93591 z"
       style="fill:#231f20;fill-opacity:1;fill-rule:nonzero;stroke:none;stroke-width:0.00584982"
       id="path32-5-5-0"
       inkscape:label="I-4" />
    <path
       d="m 57.033548,14.524362 h 0.97237 v -2.6742 h -0.97237 z"
       style="fill:#231f20;fill-opacity:1;fill-rule:nonzero;stroke:none;stroke-width:0.00607771"
       id="path30-1-7-3"
       inkscape:label="I-3" />
    <path
       d="m 53.319018,13.551922 h 2.43109 v 0.24311 h -2.43109 z m -0.97244,-1.70176 v 0.72933 h 3.40353 v 0.24311 h -3.40353 v 1.70176 h 4.37597 v -2.6742 h -4.37597"
       style="fill:#231f20;fill-opacity:1;fill-rule:nonzero;stroke:none;stroke-width:0.00607775"
       id="path18-5-2"
       inkscape:label="A" />
    <path
       d="m 51.083838,14.532982 h 0.93597 v -3.50989 h -0.93597 z"
       style="fill:#231f20;fill-opacity:1;fill-rule:nonzero;stroke:none;stroke-width:0.00584982"
       id="path16-4-1"
       inkscape:label="L" />
    <path
       d="m 45.91351,11.850162 v 2.6742 h 4.862188 v -0.72933 h -3.88975 v -1.21554 h 3.88975 v -0.72933 H 45.91351"
       style="fill:#231f20;fill-opacity:1;fill-rule:nonzero;stroke:none;stroke-width:0.00607775"
       id="path26-8-4"
       inkscape:label="C" />
    <path
       d="m 40.893929,11.850162 v 2.6742 h 0.972438 v -1.94487 h 2.917312 v 1.94487 h 0.972439 v -2.6742 h -4.862189"
       style="fill:#231f20;fill-opacity:1;fill-rule:nonzero;stroke:none;stroke-width:0.00607775"
       id="path28-0-5"
       inkscape:label="N" />
    <path
       d="m 39.673738,11.393322 h 0.935901 v -0.70198 h -0.935901 z"
       style="fill:#231f20;fill-opacity:1;fill-rule:nonzero;stroke:none;stroke-width:0.00584982"
       id="path32-51-7"
       inkscape:label="I-2" />
    <path
       d="m 39.65532,14.524362 h 0.972364 v -2.6742 H 39.65532 Z"
       style="fill:#231f20;fill-opacity:1;fill-rule:nonzero;stroke:none;stroke-width:0.00607771"
       id="path30-2-4"
       inkscape:label="I-1" />
    <path
       d="m 34.573369,11.850162 v 1.70176 h 3.88975 v 0.24311 h -3.88975 v 0.72933 h 4.862185 v -1.70176 h -3.889748 v -0.24311 h 3.889748 v -0.72933 h -4.862185"
       style="fill:#231f20;fill-opacity:1;fill-rule:nonzero;stroke:none;stroke-width:0.00607771"
       id="path34-8-1"
       inkscape:label="S" />
    <path
       d="m 28.253541,11.181612 -0.71805,0.99703 -0.717406,-0.99703 h -0.751478 l 1.126894,1.56403 -1.281174,1.77872 h 0.750834 l 0.87233,-1.21109 0.872974,1.21109 h 0.750833 l -1.281175,-1.77872 1.126251,-1.56403 h -0.750833"
       style="fill:#53c6f3;fill-opacity:1;fill-rule:nonzero;stroke:none;stroke-width:0.00642838"
       id="path38-5-3"
       inkscape:label="X" />
    <path
       d="m 22.648828,11.181612 v 3.34275 h 2.805342 v -0.57536 h -2.12072 v -0.84144 h 1.833371 v -0.57536 H 23.33345 v -0.77525 h 2.12072 v -0.57534 h -2.805342"
       style="fill:#53c6f3;fill-opacity:1;fill-rule:nonzero;stroke:none;stroke-width:0.00642838"
       id="path44-8-6"
       inkscape:label="E" />
    <path
       d="m 21.302702,11.181612 h -0.61841 l -0.850473,2.01082 -0.850474,-2.01082 h -0.61841 l -0.507841,3.34275 h 0.640266 l 0.311133,-2.04488 0.837617,2.04488 h 0.375418 l 0.838259,-2.04488 0.31049,2.04488 h 0.64091 l -0.508485,-3.34275"
       style="fill:#53c6f3;fill-opacity:1;fill-rule:nonzero;stroke:none;stroke-width:0.00642838"
       id="path40-7-03"
       inkscape:label="M" />
    <path
       d="m 16.333187,14.524362 h 0.728965 v -3.34275 h -0.728965 z"
       style="fill:#53c6f3;fill-opacity:1;fill-rule:nonzero;stroke:none;stroke-width:0.00642838"
       id="path36-1-6"
       inkscape:label="I" />
    <path
       d="m 13.667992,11.801322 v 2.72304 h 0.729016 v -2.72304 h 1.369874 v -0.61971 h -3.468108 v 0.61971 h 1.369218"
       style="fill:#53c6f3;fill-opacity:1;fill-rule:nonzero;stroke:none;stroke-width:0.00642838"
       id="path42-6-0"
       inkscape:label="T" />
  </g>
</svg>
